<svg width="120" height="120" viewBox="0 0 120 120" fill="none" xmlns="http://www.w3.org/2000/svg">
  <defs>
    <!-- Professional medical blue gradient -->
    <linearGradient id="mainGradient" x1="0%" y1="0%" x2="100%" y2="100%">
      <stop offset="0%" style="stop-color:#1E3A8A;stop-opacity:1" />
      <stop offset="50%" style="stop-color:#1E40AF;stop-opacity:1" />
      <stop offset="100%" style="stop-color:#3B82F6;stop-opacity:1" />
    </linearGradient>
    
    <!-- Inner circle gradient -->
    <linearGradient id="innerGradient" x1="0%" y1="0%" x2="100%" y2="100%">
      <stop offset="0%" style="stop-color:#F8FAFC;stop-opacity:1" />
      <stop offset="100%" style="stop-color:#E2E8F0;stop-opacity:1" />
    </linearGradient>
    
    <!-- Accent color for highlights -->
    <linearGradient id="accentGradient" x1="0%" y1="0%" x2="100%" y2="100%">
      <stop offset="0%" style="stop-color:#10B981;stop-opacity:1" />
      <stop offset="100%" style="stop-color:#059669;stop-opacity:1" />
    </linearGradient>
    
    <!-- Professional shadow -->
    <filter id="professionalShadow" x="-20%" y="-20%" width="140%" height="140%">
      <feDropShadow dx="0" dy="4" stdDeviation="8" flood-color="#000000" flood-opacity="0.15"/>
    </filter>
  </defs>
  
  <!-- Main outer circle -->
  <circle cx="60" cy="60" r="58" fill="url(#mainGradient)" filter="url(#professionalShadow)" stroke="#E5E7EB" stroke-width="1" opacity="0.95"/>
  
  <!-- Inner circle -->
  <circle cx="60" cy="60" r="48" fill="url(#innerGradient)" opacity="0.95"/>
  
  <!-- Central mind/brain representation -->
  <g transform="translate(60, 60)">
    <!-- Main brain shape - clean, geometric -->
    <path d="M-22,-18 Q-18,-22 -12,-22 Q-6,-22 0,-22 Q6,-22 12,-22 Q18,-22 22,-18 Q22,-12 18,-8 Q22,-4 22,2 Q22,8 18,12 Q12,18 0,18 Q-12,18 -18,12 Q-22,8 -22,2 Q-22,-4 -18,-8 Q-22,-12 -22,-18 Z" 
          fill="white" stroke="#64748B" stroke-width="0.5" opacity="0.95"/>
    
    <!-- Brain hemispheres division -->
    <path d="M0,-22 Q0,-18 0,-14 Q0,-10 0,-6 Q0,-2 0,2 Q0,6 0,10 Q0,14 0,18" 
          stroke="#64748B" stroke-width="1" opacity="0.8" fill="none"/>
    
    <!-- Left hemisphere folds -->
    <path d="M-18,-18 Q-15,-20 -12,-20 Q-9,-20 -6,-18 Q-3,-16 0,-16" 
          stroke="#94A3B8" stroke-width="0.8" opacity="0.7" fill="none"/>
    <path d="M-18,-14 Q-15,-16 -12,-16 Q-9,-16 -6,-14 Q-3,-12 0,-12" 
          stroke="#94A3B8" stroke-width="0.8" opacity="0.7" fill="none"/>
    <path d="M-18,-10 Q-15,-12 -12,-12 Q-9,-12 -6,-10 Q-3,-8 0,-8" 
          stroke="#94A3B8" stroke-width="0.8" opacity="0.7" fill="none"/>
    
    <!-- Right hemisphere folds -->
    <path d="M0,-16 Q3,-18 6,-18 Q9,-18 12,-18 Q15,-20 18,-18" 
          stroke="#94A3B8" stroke-width="0.8" opacity="0.7" fill="none"/>
    <path d="M0,-12 Q3,-14 6,-14 Q9,-14 12,-14 Q15,-16 18,-14" 
          stroke="#94A3B8" stroke-width="0.8" opacity="0.7" fill="none"/>
    <path d="M0,-8 Q3,-10 6,-10 Q9,-10 12,-10 Q15,-12 18,-10" 
          stroke="#94A3B8" stroke-width="0.8" opacity="0.7" fill="none"/>
    
    <!-- Lower brain folds -->
    <path d="M-12,10 Q-9,12 -6,12 Q-3,12 0,12" 
          stroke="#94A3B8" stroke-width="0.8" opacity="0.7" fill="none"/>
    <path d="M0,12 Q3,14 6,14 Q9,14 12,14" 
          stroke="#94A3B8" stroke-width="0.8" opacity="0.7" fill="none"/>
    
    <!-- Brain stem -->
    <rect x="-2" y="18" width="4" height="6" fill="#64748B" opacity="0.8"/>
    
    <!-- Neural network connections -->
    <line x1="-28" y1="-12" x2="-38" y2="-18" stroke="url(#accentGradient)" stroke-width="2" opacity="0.8"/>
    <line x1="28" y1="-12" x2="38" y2="-18" stroke="url(#accentGradient)" stroke-width="2" opacity="0.8"/>
    <line x1="-28" y1="12" x2="-38" y2="18" stroke="url(#accentGradient)" stroke-width="2" opacity="0.8"/>
    <line x1="28" y1="12" x2="38" y2="18" stroke="url(#accentGradient)" stroke-width="2" opacity="0.8"/>
    
    <!-- Connection nodes -->
    <circle cx="-38" cy="-18" r="3" fill="url(#accentGradient)" opacity="0.9"/>
    <circle cx="38" cy="-18" r="3" fill="url(#accentGradient)" opacity="0.9"/>
    <circle cx="-38" cy="18" r="3" fill="url(#accentGradient)" opacity="0.9"/>
    <circle cx="38" cy="18" r="3" fill="url(#accentGradient)" opacity="0.9"/>
    
    <!-- Mental activity indicators -->
    <circle cx="-32" cy="-25" r="2" fill="white" opacity="0.6">
      <animate attributeName="opacity" values="0.6;0.2;0.6" dur="3s" repeatCount="indefinite"/>
    </circle>
    <circle cx="32" cy="-25" r="2" fill="white" opacity="0.6">
      <animate attributeName="opacity" values="0.6;0.2;0.6" dur="3.5s" repeatCount="indefinite"/>
    </circle>
    <circle cx="-32" cy="25" r="2" fill="white" opacity="0.6">
      <animate attributeName="opacity" values="0.6;0.2;0.6" dur="4s" repeatCount="indefinite"/>
    </circle>
    <circle cx="32" cy="25" r="2" fill="white" opacity="0.6">
      <animate attributeName="opacity" values="0.6;0.2;0.6" dur="4.5s" repeatCount="indefinite"/>
    </circle>
  </g>
  
  <!-- Professional accent ring -->
  <circle cx="60" cy="60" r="52" fill="none" stroke="url(#accentGradient)" stroke-width="2" opacity="0.6"/>
  
  <!-- Subtle outer pulse -->
  <circle cx="60" cy="60" r="58" fill="none" stroke="url(#accentGradient)" stroke-width="1" opacity="0.2">
    <animate attributeName="r" values="58;61;58" dur="5s" repeatCount="indefinite"/>
    <animate attributeName="opacity" values="0.2;0.4;0.2" dur="5s" repeatCount="indefinite"/>
  </circle>
</svg>
