<svg width="32" height="32" viewBox="0 0 32 32" fill="none" xmlns="http://www.w3.org/2000/svg">
  <!-- Brain shape with gradient -->
  <path d="M16 4C12.6865 4 10 6.6865 10 10C10 12.4855 11.5665 14.628 13.8 15.4845C13.6086 15.7993 13.5 16.1551 13.5 16.5312V18.5C13.5 20.433 15.067 22 17 22H19.5C19.776 22 20 21.776 20 21.5C20 21.224 19.776 21 19.5 21H17C15.6191 21 14.5 19.881 14.5 18.5V16.5312C14.5 16.3779 14.5417 16.2328 14.6145 16.1055C15.0609 16.2008 15.5238 16.25 16 16.25C16.7441 16.25 17.4565 16.1131 18.1133 15.8647C18.6895 17.2891 20.0645 18.25 21.75 18.25C24.0972 18.25 26 16.3472 26 14C26 12.5781 25.2539 11.3203 24.1647 10.6152C24.2183 10.2515 24.25 9.8796 24.25 9.5C24.25 6.0482 21.4518 3.25 18 3.25C16.7461 3.25 15.582 3.59766 14.6191 4.19727C14.1815 4.0686 13.7225 4 13.25 4C10.3505 4 8 6.3505 8 9.25C8 9.7959 8.084 10.3198 8.2368 10.8086C7.4897 11.6494 7 12.7734 7 14C7 16.6191 9.1309 18.75 11.75 18.75C12.5406 18.75 13.2871 18.5464 13.9292 18.1919C14.2188 18.9556 14.9141 19.5 15.75 19.5H21.25C21.5261 19.5 21.75 19.2761 21.75 19C21.75 18.7239 21.5261 18.5 21.25 18.5H15.75C15.3359 18.5 15 18.1641 15 17.75C15 17.3359 15.3359 17 15.75 17H19.75C20.0261 17 20.25 16.7761 20.25 16.5C20.25 16.2239 20.0261 16 19.75 16H18.2793C19.0674 15.4595 19.7139 14.7441 20.1514 13.915C20.4282 13.9707 20.7148 14 21 14C23.2091 14 25 12.2091 25 10C25 7.7909 23.2091 6 21 6C20.6689 6 20.3472 6.0401 20.0401 6.1157C19.0376 4.8271 17.5317 4 15.8691 4H16Z" fill="url(#paint0_linear)" />
  
  <!-- Heart symbol -->
  <path d="M21.8067 24.4877C21.0805 23.7615 19.9195 23.7615 19.1933 24.4877L18.5 25.181L17.8067 24.4877C17.0805 23.7615 15.9195 23.7615 15.1933 24.4877C14.4671 25.2139 14.4671 26.3749 15.1933 27.1011L15.8866 27.7944L18.5 30.4078L21.1134 27.7944L21.8067 27.1011C22.5329 26.3749 22.5329 25.2139 21.8067 24.4877Z" fill="#F56565" />
  
  <!-- Circular background -->
  <circle cx="16" cy="16" r="15" stroke="url(#paint1_linear)" stroke-width="1" />
  
  <!-- Definitions for gradients -->
  <defs>
    <linearGradient id="paint0_linear" x1="8" y1="3.25" x2="26" y2="22" gradientUnits="userSpaceOnUse">
      <stop stop-color="#4F46E5" />
      <stop offset="1" stop-color="#7C3AED" />
    </linearGradient>
    <linearGradient id="paint1_linear" x1="1" y1="1" x2="31" y2="31" gradientUnits="userSpaceOnUse">
      <stop stop-color="#60A5FA" />
      <stop offset="1" stop-color="#7C3AED" />
    </linearGradient>
  </defs>
</svg> 